# xmcd
#
# Track frame offsets:
#	150
#	16210
#	32247
#	47516
#	62933
#	82593
#	100989
#	115596
#	131666
#	155449
#	171861
#	185441
#	199349
#	219079
#	238563
#	257559
#	273007
#	285249
#	298909
#	315495
#
# Disc length: 4424 seconds
#
# Revision: 0
# Processed by: cddbd v1.5.2PL0 Copyright (c) Steve Scherf et al.
# Submitted via: audiograbber 1.83.01
#
DISCID=0d114614
DTITLE=CDPool - Hits March 09
DYEAR=2009
DGENRE=Pop
TTITLE0=Kelly Clarkson - My Life Would Suck Without You
TTITLE1=Pet Shop Boys - Love Etc
TTITLE2=Kings Of Leon - Revelry
TTITLE3=Take That - Up All Night
TTITLE4=Oasis - Falling Down
TTITLE5=The Ting Tings - We Walk
TTITLE6=Starsailor - Tell Me It's Not Over
TTITLE7=Lemar - Weight Of The World
TTITLE8=Eminem, Dr Dre and 50 Cent - Crack A Bottle
TTITLE9=The Prodigy - Omen
TTITLE10=My Chemical Romance - Desolation Row
TTITLE11=The King Blues - Save The World, Get The Girl
TTITLE12=Beyonce - Halo
TTITLE13=Snow Patrol - If There's A Rocket Tie Me To It
TTITLE14=Sway - Silver and Gold
TTITLE15=U2 - Get On Your Boots
TTITLE16=Chase and Status Ft Kano - Against All Odds
TTITLE17=Metro Station - Shake It
TTITLE18=Gary Go - Wonderful
TTITLE19=Will Young - Let It Go
EXTD=
EXTT0=
EXTT1=
EXTT2=
EXTT3=
EXTT4=
EXTT5=
EXTT6=
EXTT7=
EXTT8=
EXTT9=
EXTT10=
EXTT11=
EXTT12=
EXTT13=
EXTT14=
EXTT15=
EXTT16=
EXTT17=
EXTT18=
EXTT19=
PLAYORDER=
